# xmcd CD database file
# Copyright (C) 1997 Ti Kan
#
# Track frame offsets:
#  150
#  14940
#  28580
#  52067
#  66500
#  79515
#  94710
#  142072
#
# Disc length: 2284 seconds
#
# Revision: 1
# Processed by: cddbd v1.4b41PL1 Copyright (c) Steve Scherf et al.
# Submitted via: CDWizzard Release:4.32
#
DISCID=7208ea08
DTITLE=The Isley Brothers - Brother, Brother, Brother  
DYEAR=1900
DGENRE=
TTITLE0=Brother, Brother
TTITLE1=Put A Little Love In Your Heart
TTITLE2=Sweet Season - Keep On Walkin'
TTITLE3=Work To Do
TTITLE4=Pop That Thang
TTITLE5=Lay Away
TTITLE6=It's Too Late
TTITLE7=Love Put Me On The Corner
EXTD=An all time classic LP finally available on cd!!! Another must have 
EXTD=for any serious collector of classic soul/rhythm and blues! This 1972 
EXTD=release includes the two hit singles, Pop That Thang, and Lay Away..
EXTD=as well as a smoking extended play cover of the Carole King classi
EXTD=c, It's Too Late....
EXTT0=
EXTT1=
EXTT2=
EXTT3=
EXTT4=
EXTT5=
EXTT6=
EXTT7=
PLAYORDER=
